<svg width="310" height="107" viewBox="0 0 310 107" fill="none" xmlns="http://www.w3.org/2000/svg">
<path d="M34.7711 66.29L15.6963 90.4514C15.1912 91.0912 16.0023 91.9317 16.6597 91.4496L42.2235 72.7028C42.3979 72.5749 42.6217 72.5348 42.8297 72.5942L49.0419 74.3692C49.3183 74.4482 49.5193 74.6839 49.5392 74.9707C50.0266 81.9804 46.8147 95.9806 30 99.5C8.95285 103.905 19.5302 101.602 3.0987 105.256C2.59691 105.367 2.13682 104.9 2.25051 104.399C8.44679 77.077 6.46449 79.9281 8.5 74.5001C14.3591 58.8758 26.4165 56.9196 32.1011 57.9227C32.3503 57.9667 32.5467 58.1496 32.6222 58.391L34.8898 65.6475C34.9588 65.8681 34.9143 66.1086 34.7711 66.29Z" stroke="#C99C92" stroke-width="2.5"/>
<path d="M66.1308 71.9337L90.3505 90.9344C90.9919 91.4376 91.8298 90.6239 91.3457 89.968L72.5208 64.4618C72.3923 64.2877 72.3515 64.064 72.4103 63.8558L74.1663 57.6383C74.2444 57.3616 74.4795 57.1599 74.7662 57.1391C81.7745 56.6302 95.7844 59.7993 99.3553 76.6031C103.825 97.6367 101.489 87.0665 105.193 103.487C105.306 103.988 104.84 104.45 104.339 104.338C76.9983 98.2249 79.8555 100.198 74.4213 98.1796C58.7791 92.3683 56.786 80.317 57.7717 74.6293C57.8149 74.38 57.9972 74.183 58.2385 74.1068L65.4879 71.817C65.7084 71.7474 65.9489 71.791 66.1308 71.9337Z" stroke="#729108" stroke-width="2.5"/>
<path d="M72.6637 41.5014L91.5216 17.1705C92.0211 16.5261 91.2025 15.6929 90.5494 16.1809L65.1543 35.1555C64.981 35.285 64.7576 35.3271 64.549 35.2695L58.3212 33.5502C58.0441 33.4737 57.8411 33.2397 57.8186 32.9531C57.2685 25.948 60.3551 11.9197 77.1377 8.25009C98.1446 3.65684 87.5882 6.05434 103.986 2.254C104.487 2.13794 104.951 2.60132 104.842 3.10363C98.8905 30.4795 100.847 27.6107 98.8603 33.0568C93.1412 48.7328 81.1017 50.7968 75.4084 49.8445C75.1588 49.8027 74.9608 49.6216 74.8832 49.3808L72.5507 42.145C72.4798 41.925 72.5221 41.6841 72.6637 41.5014Z" stroke="#F9E6D8" stroke-width="2.5"/>
<path d="M41.8202 34.7998L17.5947 15.8066C16.9531 15.3036 16.1154 16.1175 16.5997 16.7733L35.4325 42.2738C35.5611 42.4478 35.6019 42.6714 35.5432 42.8797L33.7891 49.0977C33.7111 49.3744 33.476 49.5762 33.1893 49.5971C26.1812 50.1081 12.1703 46.9434 8.59431 30.1406C4.11822 9.10843 6.45685 19.678 2.74795 3.25887C2.63469 2.75746 3.10064 2.29579 3.60234 2.4078C30.9446 8.51201 28.0868 6.53932 33.5217 8.55654C49.1656 14.363 51.1624 26.4137 50.1784 32.1017C50.1353 32.351 49.9531 32.548 49.7119 32.6243L42.4631 34.9164C42.2427 34.9861 42.0021 34.9425 41.8202 34.7998Z" stroke="#DC8958" stroke-width="2.5"/>
<circle cx="54" cy="54.5" r="14.5" fill="white"/>
<path d="M4.02295 4.31213C4.35097 4.50415 4.73103 4.59074 5.01882 4.82097C5.26934 5.02139 5.31099 5.49852 5.32776 5.84228C5.36428 6.59097 5.78663 7.10401 6.21095 7.73589C6.73612 8.51793 6.77089 9.21374 6.98148 10.1238C7.2537 11.3002 7.61124 12.4371 8.05004 13.5585C8.15047 13.8151 8.1817 14.1148 8.26085 14.3799C8.38465 14.7945 8.64193 15.1985 8.72607 15.6193C8.77088 15.8433 8.52185 15.1859 8.51163 15.1504C8.29838 14.4096 8.34081 13.5309 8.34081 12.7661C8.34081 11.9968 8.57013 11.2322 8.43531 10.4618C8.32223 9.81565 8.09278 9.14038 8.07912 8.48461C8.06794 7.94808 8.0164 7.67211 7.75564 7.19071C7.46281 6.65008 7.26402 6.12365 7.22863 5.50427C7.21953 5.34504 7.15136 5.23503 7.01783 5.14808C6.94083 5.09794 6.86022 5.04747 6.77795 5.00633C6.49903 4.86688 7.02303 5.58011 7.15957 5.86046C7.80352 7.18253 8.35013 8.55059 8.83511 9.93843C9.09729 10.6887 9.38205 11.4772 9.43481 12.2791C9.5274 13.6865 9.41639 15.1021 9.28579 16.5024C9.23346 17.0636 9.14227 17.465 9.32577 17.9926C9.65097 18.9276 10.069 19.8197 10.4343 20.7331" stroke="#DC8958" stroke-width="3" stroke-linecap="round"/>
<path d="M13.0513 21.9106C13.9579 22.8173 14.633 23.9015 15.152 25.0727C15.5953 26.0729 16.2136 26.9191 16.9039 27.795C17.47 28.5133 18.1071 29.1345 18.6121 29.8921" stroke="#DC8958" stroke-width="5" stroke-linecap="round"/>
<path d="M12.9204 17.2657C12.9801 16.9075 13.0944 16.5698 13.1821 16.219" stroke="#DC8958" stroke-width="10" stroke-linecap="round"/>
<path d="M26.5283 42.7148C27.0923 42.9349 27.6828 43.0943 28.2293 43.3545C28.4581 43.4635 28.7096 43.4989 28.9344 43.6162C29.0554 43.6793 29.3204 43.6464 29.3924 43.7616C29.4548 43.8615 29.6882 43.9303 29.7994 44.0087C29.9984 44.1492 29.8094 44.5282 30.0611 44.6121" stroke="#DC8958" stroke-width="10" stroke-linecap="round"/>
<path d="M22.93 42.7803C21.4401 42.4896 21.1573 40.5573 20.404 39.4692C20.3082 39.3308 20.2316 39.2236 20.1714 39.0731C20.0599 38.7943 19.7652 38.6393 19.6371 38.3716C19.5305 38.1486 19.5057 37.9081 19.2991 37.7428C19.1851 37.6516 19.071 37.6201 18.9684 37.5175C18.506 37.0551 18.3494 36.2482 18.0597 35.6275C17.9081 35.3026 17.8377 34.8943 17.7108 34.5517C17.6596 34.4133 17.6291 34.3596 17.4927 34.2973C17.3003 34.2092 17.0548 33.9716 16.8458 33.9483C16.6138 33.9226 16.6527 33.9619 16.6495 34.2609C16.6477 34.4275 16.5447 35.0442 16.6641 35.1768C16.8329 35.3644 16.9882 35.3272 17.0275 35.6711C17.0581 35.9387 17.0589 36.2297 17.042 36.4998C17.0258 36.7594 16.735 36.0632 16.6786 35.8092C16.5176 35.0849 16.4186 34.3453 16.2424 33.6212C16.0844 32.9716 15.9906 32.3741 15.7336 31.7385C15.5715 31.3376 15.4807 30.9212 15.3411 30.51C15.2928 30.3678 15.2757 30.27 15.2757 30.1211C15.2757 29.5484 15.2165 29.0644 14.9885 28.5365C14.8584 28.235 14.6869 27.2704 14.6869 27.5988C14.6869 28.5749 14.6188 29.4201 14.3343 30.361C14.3289 30.379 14.2246 30.7268 14.218 30.7208C13.9923 30.5177 13.9567 29.806 13.9054 29.5432C13.747 28.7311 13.4415 27.962 13.2839 27.1517C13.1798 26.6164 13.0459 26.0776 12.9895 25.5416C12.947 25.1376 12.9632 24.7852 12.826 24.3931C12.7064 24.0514 12.791 23.6382 12.6878 23.2845C12.4982 22.6342 12.3475 21.9782 12.1717 21.3255C11.9901 20.651 12.2236 19.902 12.0191 19.2429C11.7962 18.5248 11.5893 17.7764 11.612 17.004C11.6242 16.5884 11.7967 16.1895 11.7283 15.7537C11.6386 15.1815 11.6849 14.6048 11.7283 14.0237C11.7407 13.8575 11.8296 13.6021 11.612 13.6021C11.5521 13.6021 11.4448 13.596 11.4448 13.5076C11.4448 13.2013 11.558 12.9936 11.4812 12.6862" stroke="#DC8958" stroke-width="10" stroke-linecap="round"/>
<path d="M17.5654 38.1353C17.6272 38.1615 17.9687 38.2607 17.8271 38.3315" stroke="#DC8958" stroke-width="10" stroke-linecap="round"/>
<path d="M14.7521 32.9016C14.58 32.9394 14.4047 33.0325 14.2288 33.0325" stroke="#DC8958" stroke-width="10" stroke-linecap="round"/>
<path d="M12.855 21.7144C13.097 21.8088 14.1796 22.1328 14.2288 22.4158C14.3012 22.832 14.3685 23.2634 14.4687 23.6734C14.6247 24.3115 15.0022 24.9189 15.0793 25.5743C15.0899 25.6644 15.1592 25.615 15.2102 25.6688C15.3703 25.8377 15.4515 26.1803 15.5446 26.3884C15.7688 26.8897 15.1621 26.0034 15.083 25.865C14.9848 25.6933 14.8621 25.1178 15.0139 24.9491C15.1322 24.8177 15.3913 25.0005 15.5046 25.0509C15.9669 25.2564 16.5053 25.5508 16.8312 25.9377C17.2441 26.4281 16.9394 27.12 17.0565 27.7186C17.1832 28.3661 17.8767 28.6737 18.0924 29.2488C18.3643 29.9738 18.8754 30.4836 19.2918 31.1242C19.4314 31.339 19.5671 31.5381 19.6952 31.7639C19.8518 32.0397 19.9833 32.5213 20.1968 32.7561C20.3975 32.977 20.7145 32.8996 20.8801 33.1705C21.1096 33.546 21.5918 33.7045 21.8469 34.0755C22.0635 34.3905 22.0445 34.6115 22.174 34.9732C22.3969 35.5962 22.6937 35.8482 23.0754 36.3326C23.2689 36.5781 23.5462 36.7096 23.715 36.9722C23.9334 37.312 24.1382 37.6197 24.3947 37.9354C24.566 38.1462 24.6899 38.3064 24.9217 38.4624C25.0666 38.5599 25.2034 38.685 25.3506 38.775C25.5007 38.8667 25.5292 39.2086 25.6087 39.3674C25.7697 39.6894 25.8607 39.8286 26.1611 40.0289C26.2601 40.0949 26.3998 40.1445 26.4773 40.2143C26.8832 40.5795 26.942 41.0641 27.2478 41.4718" stroke="#DC8958" stroke-width="10" stroke-linecap="round"/>
<path d="M18.5466 28.3875C18.9644 28.7039 19.4521 28.8886 19.8696 29.1725C20.0027 29.263 20.1811 29.4648 20.2694 29.5941C20.5433 29.9951 20.7657 30.4605 20.8873 30.9316C20.89 30.9423 20.9018 31.0982 20.9018 31.0043" stroke="#DC8958" stroke-width="10" stroke-linecap="round"/>
<path d="M24.5654 34.3408C24.7496 34.4762 24.9558 34.6341 25.1542 34.7334" stroke="#DC8958" stroke-width="10" stroke-linecap="round"/>
<path d="M8.79883 9.08789C8.90454 9.19049 9.15772 9.34034 9.18409 9.4986C9.23023 9.7754 9.17428 10.0694 9.195 10.3491C9.21368 10.6013 9.12594 10.7905 9.12594 11.0506" stroke="#DC8958" stroke-width="10" stroke-linecap="round"/>
<path d="M16.3223 9.48047C16.5344 9.62192 16.8333 9.93842 17.1073 9.93842" stroke="#DC8958" stroke-width="10" stroke-linecap="round"/>
<path d="M15.8644 9.21871C15.6761 9.12647 15.3634 8.8916 15.1448 8.8916" stroke="#DC8958" stroke-width="10" stroke-linecap="round"/>
<path d="M19.4626 11.0505C21.5979 11.7623 23.5369 12.8878 25.725 13.4348C27.5248 13.8848 29.1695 14.8111 30.8752 15.5065C32.8625 16.3167 34.8847 17.4304 36.3743 19.0102C36.8981 19.5658 37.3161 20.2081 37.8317 20.7694C38.0465 21.0032 38.3446 21.1906 38.515 21.4526C38.7343 21.7901 39.2474 22.0409 39.5327 22.3395C39.8198 22.64 40.1711 22.8615 40.4631 23.1536" stroke="#DC8958" stroke-width="10" stroke-linecap="round"/>
<path d="M27.7712 12.0319C27.4179 11.8517 27.2861 11.7157 27.6694 11.981C27.8642 12.1159 28.0939 12.1732 28.2945 12.2936" stroke="#DC8958" stroke-width="10" stroke-linecap="round"/>
<path d="M25.6123 10.9197C26.7107 11.3795 27.7066 12.0922 28.778 12.6134C29.6219 13.0239 30.405 13.5884 31.2168 14.0636C31.7391 14.3693 32.2887 14.6306 32.816 14.9286C33.0829 15.0795 33.5458 15.2453 33.7101 15.4992C33.873 15.7509 34.3979 15.9814 34.6587 16.1607C35.0097 16.402 35.4651 16.703 35.8836 16.8077" stroke="#DC8958" stroke-width="10" stroke-linecap="round"/>
<path d="M32.2854 13.7983C33.2752 13.7983 34.273 13.856 35.1349 14.3871C35.5412 14.6375 35.793 15.0546 36.2107 15.2885C36.6743 15.5481 37.138 15.8057 37.6064 16.059C38.4272 16.5029 39.0506 16.789 39.5327 17.6437C40.066 18.589 40.596 19.514 41.5026 20.1734C41.8708 20.4411 42.1006 20.7758 42.3604 21.1474C42.8011 21.7779 43.2758 22.5065 43.6034 23.2046C43.7019 23.4145 43.8348 23.594 43.9305 23.8079C44.0797 24.1413 44.0836 24.4899 44.3231 24.7892C44.4927 25.0013 44.576 25.3781 44.6865 25.6252C44.8407 25.9699 44.8413 26.2888 44.9409 26.6501C45.1065 27.2503 45.1733 27.7765 45.5007 28.322" stroke="#DC8958" stroke-width="10" stroke-linecap="round"/>
<path d="M23.8459 14.6488C24.2333 14.8463 24.597 15.0818 24.9836 15.2667C25.3581 15.4458 25.4981 15.6907 25.7396 16.0227C26.3251 16.8278 26.9498 17.2895 27.8367 17.7382C28.7893 18.2201 29.5723 18.9431 30.4463 19.5482C30.7484 19.7573 31.1021 19.8995 31.4131 20.1006C31.7117 20.2937 31.9749 20.5244 32.2854 20.7003C32.7045 20.9379 33.0781 21.255 33.5102 21.4636C34.6196 21.9991 35.2737 23.0506 36.1962 23.7934C36.6014 24.1197 36.9367 24.5266 37.3011 24.891C37.8427 25.4326 38.4266 25.8961 38.853 26.5484C39.3521 27.3117 40.2094 27.7655 40.8557 28.3874C41.1144 28.6364 41.3641 28.7508 41.648 28.9617C41.7907 29.0677 41.912 29.2379 42.0987 29.2379" stroke="#DC8958" stroke-width="10" stroke-linecap="round"/>
<path d="M67.2865 82.8363C68.5069 82.586 69.2171 82.8499 70.3717 83.1798C70.831 83.3111 69.4861 82.7982 69.1039 82.5116C68.5469 82.0938 67.8969 81.8234 67.3302 81.4311C66.7706 81.0437 65.9959 80.8108 65.3754 80.5006C64.5091 80.0674 66.0409 79.8678 66.3872 79.5762C66.9886 79.0698 67.4454 79.4486 66.3434 78.7956C66.0215 78.6048 65.3712 78.4468 65.1506 78.171C65.0804 78.0833 64.325 78.349 64.1388 78.3396C63.8566 78.3255 63.8207 78.0159 63.5767 78.0024C63.3907 77.9921 63.201 78.0024 63.0146 78.0024" stroke="#729108" stroke-width="10" stroke-linecap="round"/>
<path d="M66.6118 80.5881C67.4226 80.88 68.2638 81.3669 69.0225 81.7685C69.4005 81.9686 69.8233 82.1503 70.1842 82.3868C70.9296 82.8752 71.3714 83.3955 71.9329 84.0918C72.6495 84.9804 73.8466 85.5329 74.862 85.9841C75.4327 86.2378 75.9821 86.8225 76.5045 87.1708C77.0182 87.5133 77.5482 87.7413 78.0659 88.0576C80.4832 89.5349 83.2192 90.3602 85.6977 91.7424C86.7205 92.3128 87.8338 92.7547 88.9453 93.1289C89.9928 93.4815 91.0787 94.0401 92.1305 94.303" stroke="#729108" stroke-width="10" stroke-linecap="round"/>
<path d="M62.9021 82.2743C64.7089 83.0144 66.487 84.0475 67.9609 85.3345C68.5012 85.8064 69.1876 86.4826 69.2849 87.2331C69.3451 87.6978 68.2264 87.9392 67.8984 87.8702C67.7508 87.8391 67.1527 87.4661 67.6111 87.6953C68.0675 87.9235 68.4747 88.2203 68.9726 88.3448" stroke="#729108" stroke-width="10" stroke-linecap="round"/>
<path d="M66.8367 85.6467C66.497 85.7022 66.1684 85.7591 65.825 85.7591" stroke="#729108" stroke-width="10" stroke-linecap="round"/>
<path d="M74.0877 91.3788C73.8406 91.4847 73.6018 91.58 73.3575 91.6885C73.2147 91.752 73.049 91.6542 72.9273 91.5656C72.6035 91.3302 72.1343 91.2421 71.7866 91.0248" stroke="#729108" stroke-width="10" stroke-linecap="round"/>
<path d="M82.761 95.45C83.5558 95.8738 84.4835 95.6096 85.3202 95.8064C86.2453 96.0241 87.2045 96.0829 88.1252 96.3006C88.8822 96.4795 89.6851 96.5945 90.3968 96.9348C90.8325 97.1432 91.3804 97.182 91.8521 97.2642C92.3764 97.3556 92.8983 97.4724 93.4206 97.574C95.0215 97.8853 96.6108 97.9447 98.0645 98.7442C98.5625 99.0181 99.1301 99.0336 99.6551 99.2211C99.8784 99.3009 100.198 99.3463 100.373 99.5211" stroke="#729108" stroke-width="10" stroke-linecap="round"/>
<path d="M76.3445 94.2108C76.7037 94.4263 77.0729 94.628 77.4508 94.7959C77.577 94.852 77.708 94.9631 77.849 94.9631" stroke="#729108" stroke-width="10" stroke-linecap="round"/>
<path d="M99.0011 93.9453C98.5457 93.1385 98.2883 92.2099 97.9957 91.3321C97.8274 90.8272 97.6892 90.3119 97.4056 89.857C97.1515 89.4493 96.8523 89.0811 96.6116 88.6647C96.3786 88.2618 96.1655 87.8425 95.938 87.433C95.7276 87.0545 95.5879 86.5133 95.4635 86.1055C95.2143 85.2888 94.933 84.5717 94.5416 83.8069C94.2296 83.1972 93.8858 82.538 93.5042 81.9656C93.0079 81.2212 92.5315 80.583 92.2307 79.7407" stroke="#729108" stroke-width="10" stroke-linecap="round"/>
<path d="M92.275 82.9268C91.939 83.0313 91.5448 82.816 91.3015 82.5728" stroke="#729108" stroke-width="10" stroke-linecap="round"/>
<path d="M94.2664 77.6167C94.518 77.7605 94.7881 77.8525 95.0408 77.9928C95.1543 78.0559 95.4299 78.1628 95.4071 78.31C95.3836 78.461 95.3726 78.9201 95.3726 78.7672" stroke="#729108" stroke-width="10" stroke-linecap="round"/>
<path d="M90.195 77.0414C89.8915 76.7693 89.7434 76.4893 89.5583 76.1244C89.2537 75.5237 88.9323 74.9351 88.5872 74.3568C88.292 73.8621 88.0341 73.3557 87.7612 72.8473C87.496 72.3533 87.0992 71.9468 86.8319 71.4608C86.4729 70.808 86.0695 70.1862 85.674 69.5555C85.5927 69.4259 85.5829 69.2841 85.5093 69.1597C85.2158 68.6636 84.7575 68.2506 84.3637 67.8371C83.8189 67.2651 83.2519 66.6976 82.6846 66.1482C82.0111 65.496 81.3701 64.8382 80.6171 64.2872C80.5659 64.2497 78.529 63.2613 78.5816 63.1637C78.7862 62.7837 78.7207 62.2881 78.911 61.9075" stroke="#729108" stroke-width="10" stroke-linecap="round"/>
<path d="M85.1062 63.7218C85.2877 63.7989 85.4699 63.9037 85.6372 63.9873" stroke="#729108" stroke-width="10" stroke-linecap="round"/>
<path d="M86.4338 64.6953C86.7211 64.8566 87.04 65.0255 87.2943 65.2362C87.5357 65.4362 87.5401 65.728 87.5401 66.013C87.5401 66.2919 87.7789 66.5445 87.9285 66.7825C88.1354 67.1116 88.3571 67.3062 88.6661 67.5028C88.8404 67.6137 88.9192 68.0668 89.0397 68.2477C89.1517 68.4156 89.275 68.5737 89.3987 68.732C89.9279 69.4095 90.6686 69.8764 90.9917 70.7135C91.0484 70.8603 91.1292 71.192 91.2769 71.2789C91.3649 71.3307 91.463 71.4489 91.5006 71.5542C91.5521 71.6984 91.5329 71.8652 91.5916 71.9992C91.6633 72.1633 91.7779 72.3473 91.8841 72.4934C92.0365 72.7029 92.1564 72.9499 92.2504 73.1915C92.3027 73.326 92.2154 73.56 92.3635 73.634" stroke="#729108" stroke-width="10" stroke-linecap="round"/>
<path d="M80.1059 67.085C79.9675 67.1284 79.7254 67.2352 79.5774 67.1489C79.463 67.0822 79.8743 67.2401 79.9289 67.262" stroke="#729108" stroke-width="10" stroke-linecap="round"/>
<path d="M82.3186 68.5894C82.2193 68.7649 81.6861 69.3794 82.0531 69.5629" stroke="#729108" stroke-width="10" stroke-linecap="round"/>
<path d="M84.9735 71.0675C84.7803 71.2 84.5912 71.3371 84.3982 71.4658" stroke="#729108" stroke-width="10" stroke-linecap="round"/>
<path d="M86.6551 73.5012C86.5169 73.6946 86.3881 73.8118 86.1904 73.9216C86.1149 73.9636 85.9157 74.1493 86.0355 74.2092" stroke="#729108" stroke-width="10" stroke-linecap="round"/>
<path d="M87.7172 75.9794C87.5555 76.3029 87.3757 76.5819 87.2305 76.9086" stroke="#729108" stroke-width="10" stroke-linecap="round"/>
<path d="M24.314 68.7512C24.2842 68.7331 23.4615 68.2589 23.5288 68.1977C23.8008 67.9505 24.2712 67.6963 24.5908 67.4833C25.1034 67.1416 25.5732 66.4698 26.2255 66.3248C26.737 66.2112 27.1428 65.708 27.6479 65.5332C27.9338 65.4342 28.5776 65.6689 28.7163 65.3916" stroke="#C99C92" stroke-width="10" stroke-linecap="round"/>
<path d="M26.8628 67.3611C26.8628 67.8784 26.942 68.1779 27.0945 68.6354" stroke="#C99C92" stroke-width="10" stroke-linecap="round"/>
<path d="M26.0519 69.7939C25.6561 70.0993 25.1962 70.686 24.7068 70.8366C24.4795 70.9065 24.206 71.0194 24.0825 71.2356C23.8563 71.6314 23.5066 71.9599 23.1814 72.2525C22.8957 72.5096 22.7292 72.8179 22.3898 73.0442C21.5671 73.5926 21.4723 74.837 20.7872 75.522C20.2132 76.096 19.871 76.9331 19.5386 77.6717C19.2447 78.3247 19.2371 79.5655 18.5796 79.9308C18.0792 80.2088 17.7441 80.7811 17.2474 81.0571C16.892 81.2545 16.6491 81.7328 16.3206 81.8423" stroke="#C99C92" stroke-width="10" stroke-linecap="round"/>
<path d="M13.1926 77.0925C13.5199 76.3224 13.861 75.3756 14.4927 74.8013C14.9223 74.4107 15.221 74.2231 15.4195 73.7071C15.8976 72.4641 17.0621 71.6012 18.0004 70.6629C18.2682 70.395 21.2345 67.654 20.8902 67.3097C20.4511 66.8706 19.6156 68.0314 19.2168 68.0563C18.8286 68.0805 19.9691 67.8364 20.3109 67.6508C20.6358 67.4744 20.9267 67.2657 21.2506 67.1037C21.643 66.9075 21.8192 66.7677 22.0229 66.4344C22.4058 65.8078 23.6298 65.81 24.1726 65.366C24.3998 65.1801 25.1251 65.0194 25.4212 64.9348C25.7995 64.8267 26.2497 64.5259 26.6311 64.4714C27.2457 64.3836 27.8951 64.4287 28.5169 64.3555C28.7142 64.3323 28.8893 64.38 29.064 64.259C29.3003 64.0954 28.5398 64.0098 28.3174 63.8278C28.0173 63.5823 29.2979 63.5425 29.4115 63.7699" stroke="#C99C92" stroke-width="10" stroke-linecap="round"/>
<path d="M29.2957 62.8429C29.0818 62.6809 28.7173 62.4971 28.6006 62.2637" stroke="#C99C92" stroke-width="10" stroke-linecap="round"/>
<path d="M25.0091 63.4222C24.1115 63.7725 23.5384 64.2189 22.8015 64.8768C22.3945 65.2402 21.9831 65.5755 21.5787 65.9323C21.2958 66.1819 21.0762 66.7251 20.7742 66.8977C19.8877 67.4042 19.1283 68.2399 18.3413 68.9058C17.5299 69.5923 16.3906 70.1122 15.9729 71.1455C15.5812 72.1143 15.6389 73.166 15.3292 74.1512C15.021 75.132 14.4301 76.0213 14.2995 77.0474C14.1971 77.8516 14.4398 78.8916 14.1579 79.6604C13.6412 81.0696 12.2947 82.0955 11.6864 83.4642C11.3936 84.123 11.7825 85.0447 11.6864 85.7811C11.6074 86.387 10.996 86.8006 10.8755 87.403" stroke="#C99C92" stroke-width="10" stroke-linecap="round"/>
<path d="M12.4836 84.6565C12.617 84.7028 12.7442 84.7695 12.876 84.8134" stroke="#C99C92" stroke-width="10" stroke-linecap="round"/>
<path d="M4.40137 103.058C4.66945 102.71 4.99642 102.396 5.28634 102.064C5.60266 101.702 5.72138 101.23 6.01438 100.841C6.29758 100.465 6.54485 100.137 6.72934 99.7011C6.94702 99.1868 7.13761 98.6561 7.31787 98.1273C7.38778 97.9222 7.40616 97.7044 7.46173 97.4952C7.55993 97.1255 7.70452 96.7698 7.80613 96.401C7.95466 95.8617 8.15311 95.3571 8.34671 94.8359C8.52878 94.3457 8.62409 93.8246 8.81318 93.3384C8.99095 92.8813 8.91884 92.3721 8.81753 91.8976C8.77104 91.6798 8.69103 91.2959 8.53853 91.1434C8.4254 91.0303 8.40775 90.8492 8.32491 90.7162C8.15465 90.4427 7.74442 91.3092 7.67535 91.4181C7.24599 92.0946 6.99657 92.7951 6.69882 93.5324C6.5455 93.9121 6.4968 94.1822 6.55932 94.583C6.63006 95.0366 6.64667 95.4906 6.63561 95.9497C6.62944 96.2058 6.53435 96.4589 6.57675 96.7148C6.62949 97.0331 6.77303 97.3224 6.91026 97.6107C7.18567 98.1894 7.44161 98.7463 7.58598 99.3741C7.70659 99.8987 7.76547 100.408 8.03065 100.88C8.27845 101.322 8.55689 101.732 8.80664 102.173C8.81399 102.186 8.89317 102.303 8.91344 102.304C8.99589 102.308 9.16296 102.001 9.19245 101.964C9.55327 101.504 9.98851 101.107 10.3477 100.647C10.896 99.9446 10.9512 99.0085 10.9733 98.1513C10.9951 97.306 10.9856 96.4607 11.0343 95.6162C11.0626 95.1266 11.2115 94.6576 11.2371 94.1689C11.2606 93.7192 11.2424 93.2663 11.3722 92.8305C11.5209 92.3314 11.6387 92.3168 12.1656 92.2376C12.2625 92.2231 12.601 92.123 12.6888 92.218C12.8467 92.3892 13.0706 92.4869 13.2468 92.6387C13.9892 93.2787 12.9857 94.5375 12.728 95.1977C12.5547 95.6418 12.5231 96.0359 12.5231 96.5056C12.5231 96.9318 12.5776 97.4491 12.7672 97.8352C12.9309 98.1684 13.0857 98.512 13.1705 98.875C13.2757 99.3253 13.3376 99.7942 13.3754 100.255C13.3874 100.401 13.4151 100.611 13.3601 100.756C13.2863 100.951 12.9898 101.116 12.8326 101.236C12.7723 101.282 12.7116 101.321 12.6495 101.362C12.4763 101.478 13.0562 101.263 13.2468 101.179C13.6926 100.983 14.1108 100.73 14.5481 100.516C15.1645 100.215 15.8054 99.9688 16.4532 99.7447C16.9153 99.5848 17.3845 99.4727 17.8068 99.2194C17.8787 99.1762 18.0923 99.0833 18.1251 98.9905C18.2289 98.6964 18.2405 98.2888 18.1512 97.9944C17.9062 97.1858 17.3719 96.5958 16.7257 96.0784C16.3613 95.7866 15.9405 95.6244 15.5486 95.3808C15.3209 95.2393 14.6811 94.9194 14.6811 94.5918C14.6811 94.3979 16.1984 94.1903 16.2418 94.182C16.6088 94.1116 17.2563 93.9022 17.6542 94.0141C17.722 94.0332 17.7806 94.0729 17.8482 94.0904C18.1392 94.1659 18.461 94.1598 18.7572 94.2168C19.2157 94.3052 19.6736 94.4269 20.1152 94.5787C20.3728 94.6672 20.6915 94.8102 20.889 95.0016C21.3905 95.4876 21.1022 96.4271 20.8149 96.9459C20.6167 97.3036 20.4023 97.5675 20.0563 97.7742C19.9893 97.8143 19.192 98.2907 19.3021 98.3714C19.5679 98.5664 20.0171 98.7551 20.331 98.8597" stroke="#C99C92" stroke-width="5" stroke-linecap="round"/>
<path d="M19.0752 91.7581C19.4942 91.8238 19.8736 91.6718 20.2217 91.4442C20.2789 91.4069 20.3359 91.4115 20.3983 91.3897C20.8893 91.2179 21.362 91.0107 21.8609 90.8557C22.4231 90.681 22.9879 90.5142 23.5546 90.3543C23.7681 90.2941 23.8177 90.2319 23.9578 90.071C24.422 89.5381 25.0762 89.2051 25.6188 88.7631C26.1422 88.3368 26.6652 87.8955 27.2274 87.5207C27.7839 87.1497 28.3517 86.802 28.9211 86.4461C29.4938 86.0881 30.1648 85.7499 30.5864 85.2058C31.0556 84.6004 31.4968 84.0197 32.0839 83.5165C32.4135 83.234 32.7805 83.0114 33.1346 82.7623C33.7554 82.3254 34.4378 81.9971 35.0506 81.5525C35.7505 81.0448 36.4153 80.526 36.9709 79.8567C37.2544 79.5152 37.556 79.1808 37.8951 78.8932C38.4012 78.464 39.0913 78.2081 39.6912 77.9472C40.1316 77.7558 40.6063 77.5579 40.9991 77.2802C41.2541 77.0999 41.4901 76.8941 41.7489 76.7178C41.8749 76.6321 42.0219 76.596 42.1478 76.5064C42.3247 76.3806 42.4942 76.2414 42.6688 76.1119C42.7849 76.0257 42.831 75.9344 42.9914 75.9157C43.5426 75.8513 44.0451 76.0549 44.5695 76.1991C44.9491 76.3035 45.3251 76.4207 45.655 76.6307C45.8033 76.725 46.0186 76.793 46.152 76.9097C46.2131 76.9632 46.2912 76.9594 46.3438 77.0252C46.4493 77.157 46.4223 77.3303 46.4223 77.5156" stroke="#C99C92" stroke-width="5" stroke-linecap="round"/>
<path d="M43.5974 79.0458C43.2486 79.2322 42.8317 79.4031 42.5315 79.6692C42.2814 79.8909 42.0866 80.1803 41.8798 80.4408C41.7599 80.5919 41.6322 80.73 41.5005 80.8702C41.3202 81.0622 41.4688 81.0355 41.6313 80.94C42.553 80.3978 43.3799 79.6339 44.4126 79.2943C44.7754 79.175 45.2985 79.0111 45.6791 79.1678C45.8731 79.2478 45.9289 79.3716 45.9515 79.5776C46.0137 80.1437 45.9609 80.719 45.7859 81.2604C45.7299 81.4336 45.6507 81.8775 45.4829 81.9928C45.3702 82.0703 45.5026 81.2669 45.5374 81.195C45.6886 80.8828 45.9606 80.6477 46.1216 80.3405C46.1625 80.2625 46.3748 79.8282 46.1521 80.1051C45.666 80.7096 45.2468 81.3641 44.7876 81.9884C43.8644 83.2434 42.7345 84.2952 41.6727 85.4281C41.216 85.9154 40.7946 86.502 40.2798 86.9321C40.1263 87.0604 39.7763 87.3557 39.5562 87.3441C38.9542 87.3124 38.9904 86.1057 38.9502 85.7463C38.8656 84.99 38.7456 84.1409 39.4515 83.6232C39.5654 83.5398 39.3725 83.8969 39.3033 84.02C38.4942 85.4593 37.3859 86.5598 36.0947 87.5773C35.6053 87.963 35.0819 88.3347 34.5689 88.689C34.2193 88.9305 33.7478 89.348 33.3308 89.4977C33.139 89.5665 33.1287 89.2717 33.139 89.1642C33.1743 88.7938 33.4076 88.4468 33.6273 88.1637C34.2746 87.3295 35.1497 86.7168 36.0206 86.1387C36.4422 85.8588 36.8567 85.5179 37.3808 85.4891C38.3505 85.4358 39.1114 86.0165 39.2793 87.0106C39.5246 88.4626 38.648 89.8711 37.4287 90.581C37.2796 90.6679 37.1364 90.7104 36.9623 90.6725C36.4569 90.5627 35.9775 90.2846 35.5193 90.0535C34.7594 89.6702 34.0281 89.2492 33.2632 88.8743C33.0757 88.7823 32.8858 88.6154 32.6856 88.5582C32.543 88.5175 32.82 88.823 32.8992 88.9484C33.1097 89.2816 33.2814 89.6002 33.2523 90.0099C33.1734 91.1247 32.3656 92.2111 31.4344 92.7869C30.913 93.1094 30.2084 93.2084 29.6296 93.3624C28.7893 93.5859 27.9443 93.7906 27.1316 94.1035C26.6424 94.2918 26.1296 94.6826 25.6101 94.777C25.0455 94.8797 24.428 95.0966 23.8969 95.3198C23.6922 95.4058 23.3022 95.5532 23.1579 95.7426C23.0034 95.9455 22.9787 96.2951 22.9378 96.5317C22.8638 96.9594 22.8661 97.4238 22.7154 97.8352C22.6574 97.9937 22.5662 98.0459 22.7351 98.1556C22.9402 98.289 23.173 98.3747 23.3824 98.5022C23.829 98.774 24.4366 98.4669 24.856 98.2493C25.3659 97.9847 25.9212 97.7894 26.4711 97.6259C27.665 97.271 28.8776 96.9328 30.0045 96.3922C30.3231 96.2394 30.5717 96.0343 30.8197 95.7862C31.1816 95.4244 31.6059 95.139 32.0273 94.8511C32.5085 94.5224 32.9411 94.3347 33.4703 94.1253C33.8617 93.9704 34.2327 93.786 34.6038 93.589C35.2249 93.2595 35.8805 93.003 36.5089 92.6888C36.8617 92.5124 37.2143 92.3144 37.553 92.1112C37.688 92.0302 37.7717 91.9108 37.8778 91.7973C38.2215 91.4295 38.627 91.1138 38.9894 90.7641C39.5357 90.237 40.0738 89.7016 40.633 89.1881C40.8382 88.9997 41.0338 88.8187 41.1844 88.5843C41.3015 88.4022 41.7448 88.2422 41.9103 88.144C42.4524 87.8224 42.9631 87.4624 43.4928 87.1239C43.6249 87.0395 43.6582 86.9527 43.7195 86.8079C43.8282 86.5509 43.974 86.3317 44.1663 86.13C44.4033 85.8815 44.698 85.6257 44.8137 85.2929C44.9232 84.9782 45.098 84.6906 45.2083 84.3753C45.3276 84.0338 45.4644 83.6588 45.3063 83.3094C45.132 82.9239 44.9079 82.6618 44.5521 82.4505C44.0354 82.1436 43.529 81.7924 43.0002 81.5089C42.6344 81.3128 42.2467 81.113 41.8602 80.9596C41.3395 80.753 40.6013 80.9429 40.088 81.0468C38.9669 81.2736 37.6399 81.6095 36.8228 82.4723C36.4865 82.8274 36.2322 83.2509 35.8833 83.5949C35.0161 84.4499 34.0067 85.1798 33.0889 85.9817C32.2986 86.6722 31.4267 87.2825 30.689 88.0307C30.268 88.4576 29.8755 88.9276 29.6405 89.4846C29.4577 89.918 29.3781 90.3869 29.2372 90.8338C28.9074 91.8801 28.3683 92.7975 27.6417 93.6087C27.0324 94.2888 26.2176 94.7148 25.3965 95.0887C25.0529 95.2452 24.7094 95.3592 24.3459 95.4593C24.3251 95.465 24.0835 95.5779 24.0952 95.5377C24.1202 95.452 24.2298 95.2806 24.2522 95.2435C24.5605 94.7309 24.8769 94.2172 25.2091 93.7198C25.9635 92.5904 26.9596 91.6966 27.9795 90.8121C28.3796 90.465 28.8894 89.8405 29.4814 89.8355C29.5813 89.8347 30.1608 89.7716 29.9195 89.9358C29.3714 90.3087 28.7635 90.6029 28.1953 90.9428C27.4454 91.3915 26.7294 91.8769 26.0352 92.4076C25.3118 92.9607 24.5043 93.5397 23.9623 94.2866C23.8038 94.5049 23.7543 94.6219 23.9971 94.7487C24.7549 95.1444 25.5037 95.5586 26.2684 95.941C27.1935 96.4035 28.1986 96.5587 29.2242 96.5927C30.611 96.6388 32.0326 96.73 33.3831 96.3878C33.7681 96.2903 34.0149 95.9821 34.3095 95.7296C34.7344 95.3654 35.2605 95.0662 35.6239 94.6397C35.6927 94.5589 35.7423 94.4871 35.8288 94.4239C36.2964 94.0825 36.7586 93.7201 37.2631 93.4343C37.6878 93.1936 38.0499 92.8837 38.5099 92.6997C38.7504 92.6035 38.956 92.5206 39.1834 92.3706C39.9424 91.87 40.73 91.3587 41.409 90.751C41.8036 90.3978 42.2311 90.0081 42.4966 89.5434C42.6106 89.3441 42.6942 89.1306 42.8127 88.9331" stroke="#C99C92" stroke-width="5" stroke-linecap="round"/>
<path d="M60.4387 30.2883C60.8219 30.4837 61.4045 30.7136 61.6996 31.0355C61.8274 31.1749 61.054 31.3261 60.9944 31.339C60.6445 31.4151 61.359 31.6553 61.4848 31.7173C61.792 31.8687 62.145 31.96 62.4374 32.1376C63.0701 32.5217 63.9481 32.1901 64.5575 31.8854C65.0608 31.6337 65.667 31.4483 66.0705 31.0448C66.399 30.7164 66.5719 30.2833 66.8457 29.9147C67.4138 29.1499 68.1008 28.8697 68.9331 28.383C69.7097 27.9289 70.366 27.3094 71.1559 26.884C71.6515 26.6172 72.1096 26.314 72.5241 25.9314C73.2646 25.2479 74.1284 24.792 75.0272 24.339C76.3639 23.6652 77.5767 22.7716 78.6603 21.7333C79.1004 21.3115 79.6229 21.0303 80.1219 20.6872C81.0732 20.0332 81.9145 19.2203 82.9425 18.6792C84.7405 17.7329 86.6759 17.0659 88.4341 16.0361C88.8057 15.8185 89.205 15.6159 89.4755 15.2703C89.6907 14.9953 89.8268 14.6943 90.0919 14.4671C90.3513 14.2448 91.0827 14.0537 91.1473 13.6919C91.2601 13.0599 89.2967 12.3022 88.9151 12.0948C87.9381 11.5639 87.0236 11.0182 86.0105 10.5631C85.3193 10.2526 84.6176 9.94241 83.9371 9.61047C83.8002 9.54369 83.5066 9.32055 83.3301 9.36764C82.6774 9.54167 81.9723 10.045 81.3968 10.3857C80.7903 10.7446 80.1298 11.0331 79.5008 11.3476C78.709 11.7436 77.9427 12.0291 77.0539 12.1508C76.2088 12.2666 75.7619 12.5653 74.9244 12.319C74.2343 12.116 73.9937 11.9876 73.3554 12.4217C72.9062 12.7271 72.4232 12.8994 71.9171 13.0988C71.3044 13.3402 70.6924 13.581 70.1426 13.944C69.468 14.3895 69.2658 14.9969 68.7603 15.5598C68.403 15.9577 67.9208 16.2405 67.5415 16.6198C67.1724 16.9889 66.8264 17.399 66.4674 17.7873C65.8056 18.5032 65.1232 19.1315 64.4361 19.8186C64.0811 20.1736 63.5996 20.6036 63.4087 21.0701C63.2059 21.5659 62.7923 21.9549 62.7923 22.4898C62.7923 22.8015 62.8683 23.1839 62.6709 23.4377C62.2898 23.9277 62.1725 24.6807 62.1152 25.2823C62.0418 26.0525 61.4116 26.5828 61.1112 27.2436C60.9831 27.5254 60.5589 27.9597 60.8683 28.1402C61.4489 28.4789 62.1477 28.7515 62.8297 28.5605C63.3484 28.4152 63.6072 28.0635 63.9691 27.6826C64.4407 27.1862 64.8112 26.5954 65.1505 26.0014C65.6853 25.0657 66.5844 24.4571 67.4621 23.8954C68.4458 23.2658 69.468 22.6756 70.4227 22.0041C71.179 21.4722 72.2077 20.9256 72.7763 20.1829C73.1446 19.7019 73.1664 19.6946 73.7757 19.417C75.0215 18.8496 76.2262 18.1724 77.5068 17.6845C78.0672 17.4711 78.7075 17.3368 79.2253 17.0308C81.0091 15.9767 83.1749 15.6118 84.9271 14.4904C85.0352 14.4212 85.2369 14.3765 85.3194 14.3176C85.3332 14.3077 84.672 13.9608 84.6563 13.9534C84.3378 13.8031 84.0163 13.6571 83.6943 13.5144C83.0174 13.2145 82.5606 13.5693 81.9104 13.8693C81.0033 14.288 80.0809 14.6558 79.1926 15.1208C78.023 15.7332 76.8623 16.3616 75.6903 16.9654C74.9689 17.337 74.2402 17.6811 73.5468 18.1048C72.8779 18.5136 72.2361 19.0053 71.5342 19.3563C70.6192 19.8138 69.7076 20.2297 68.8163 20.7339C68.5369 20.892 66.7608 22.0506 66.9764 22.3217C67.5141 22.9976 68.8141 22.1922 69.3253 21.9107C70.3603 21.3409 71.4861 20.8426 72.3981 20.0802C72.5113 19.9855 73.4003 19.3872 73.2433 19.2302C72.9751 18.9621 72.5524 18.8838 72.2533 18.6465C71.9732 18.4244 71.1818 18.1545 71.0485 17.848C71.038 17.8239 74.1443 16.1207 74.3827 15.9894C75.2565 15.5081 75.8933 15.1825 76.8764 15.1488C78.6294 15.0889 80.3743 14.906 82.1299 14.906C83.6115 14.906 84.9876 14.837 86.4215 14.4017C86.8445 14.2733 87.3382 14.138 87.7197 13.9067C88.4643 13.4552 87.7007 12.9779 87.2433 12.6925C87.1628 12.6423 85.1404 11.5741 85.226 11.441C85.3048 11.3184 85.5628 11.2474 85.679 11.1982C86.0838 11.0269 86.4713 10.8326 86.8604 10.6285C87.2019 10.4494 87.5321 10.1901 87.8878 10.0541C88.0984 9.97359 89.5452 9.59084 89.5222 9.26958C89.5116 9.12048 89.0164 8.87078 88.9151 8.8026C88.5147 8.53309 88.0999 8.28616 87.6636 8.07878C87.0605 7.79204 87.2298 7.87459 87.701 8.07878C88.331 8.3518 88.9282 8.42387 89.6249 8.43368C90.6613 8.44828 91.3741 8.34144 92.3708 8.05076C93.9215 7.59848 95.4278 7.02267 96.9939 6.63114C98.4355 6.27073 99.8895 5.56985 101.374 5.49171C101.733 5.47283 102.092 5.24572 102.355 5.02473C102.48 4.9198 102.905 4.70963 102.742 4.72586C102.371 4.76303 101.848 5.18517 101.552 5.37497C101.224 5.58529 100.633 5.90158 100.482 6.29959C100.366 6.60657 100.423 7.01143 100.347 7.33628C100.17 8.09169 100.014 8.8039 99.9452 9.57311C99.9043 10.0326 99.5041 10.5145 99.3194 10.9367C99.0715 11.5034 98.5633 12.0478 98.1333 12.4777C97.5548 13.0562 96.9248 13.6975 96.2467 14.1495" stroke="#F9E6D8" stroke-width="5" stroke-linecap="round"/>
<path d="M94.6497 10.1989C94.7556 10.6667 94.802 11.1668 94.9205 11.6278C94.9446 11.7213 95.1691 11.947 94.9859 11.8706C94.5984 11.7092 94.2198 11.5206 93.8465 11.3289C93.5913 11.1979 93.9127 11.2429 94.0239 11.2963C94.8628 11.6989 95.5635 11.304 96.3028 10.8433C96.4162 10.7726 96.71 10.5206 96.3682 10.7125C95.9126 10.9684 95.4133 11.324 95.1727 11.8053C94.9267 12.2973 95.0199 12.8836 94.9719 13.4117C94.8954 14.253 94.5248 15.0047 94.2854 15.8026C93.9743 16.8396 93.833 17.9242 93.4822 18.9641C93.0981 20.1028 93.1139 21.2816 92.6323 22.3964C92.2038 23.3884 91.4743 24.2317 91.1707 25.2776C90.8716 26.3079 90.5042 27.2263 89.8865 28.1402C89.3676 28.9079 88.7937 29.6074 88.4015 30.4564C87.9067 31.5276 87.691 32.6731 87.2994 33.7766C86.6407 35.6331 85.4147 37.5603 83.9745 38.9274C83.3064 39.5617 82.5365 40.08 81.8544 40.702C80.8955 41.5763 79.8361 42.4642 78.693 43.0929C78.3928 43.258 78.159 43.3649 77.8104 43.4571C77.3515 43.5786 76.945 43.7863 76.5122 43.9708C76.1939 44.1065 76.1089 44.0294 76.2087 43.686C76.3018 43.3652 76.7924 42.7641 76.7924 42.4578C76.7924 42.1772 76.6009 42.4433 76.5262 42.4765C76.4977 42.4891 76.2612 42.6563 76.3768 42.6306C76.5731 42.587 76.82 42.2994 76.9652 42.1729C77.3738 41.8171 77.8204 41.5036 78.212 41.1316C78.5216 40.8375 78.679 40.7113 78.679 40.2537C78.679 39.9781 78.9158 39.5149 78.5949 39.301C78.4528 39.2063 78.2008 39.9151 78.0859 40.0388C77.9595 40.175 77.5607 40.553 77.6563 40.3937C78.1053 39.6455 78.7471 38.9473 79.2394 38.2176C80.024 37.0545 80.8217 36.0781 81.8825 35.1542C82.2911 34.7983 82.771 34.5541 83.0312 34.0615C83.1686 33.8014 83.1715 33.5329 83.3114 33.263C83.6496 32.6107 84.1502 32.1536 84.647 31.6332C84.9903 31.2735 84.8817 30.498 85.2027 30.0782C85.506 29.6815 85.8494 29.291 86.188 28.9247C86.3565 28.7425 86.8025 28.4479 86.8324 28.1682C86.8628 27.8851 87.094 27.7129 87.164 27.4678C87.299 26.9952 87.5888 26.4979 87.8598 26.0855C88.3521 25.3363 89.1521 24.7309 89.5783 23.9561C89.8168 23.5224 89.9901 23.0765 90.2554 22.6532C90.5177 22.2346 90.9137 21.7806 91.0353 21.2943" stroke="#F9E6D8" stroke-width="5" stroke-linecap="round"/>
<path d="M75.9893 45.9228C76.4399 46.1096 76.8439 46.5952 77.3342 46.5952C78.1784 46.5952 79.0332 46.338 79.8699 46.2543C81.4047 46.1009 83.1479 46.1742 84.6144 45.6566C85.0475 45.5037 85.4162 45.154 85.8612 44.9888C86.2427 44.8472 86.6463 44.7718 87.0006 44.5592C87.2054 44.4363 87.4442 44.0969 87.617 43.9241C87.8153 43.7259 88.0669 43.5062 88.2428 43.2984C88.4647 43.0361 88.5486 42.6903 88.8172 42.4391C89.0723 42.2005 89.3957 41.9661 89.6858 41.7667C89.9968 41.5528 90.2357 41.2165 90.4283 40.8981C90.6678 40.502 91.0069 40.4416 91.4136 40.249C91.9863 39.9777 92.2246 39.1688 92.5484 38.6472C93.123 37.7214 93.8116 36.7954 93.9726 35.6679C94.0806 34.9124 94.3005 34.1883 94.4163 33.4358C94.5008 32.886 94.8926 32.4177 95.1354 31.9227C95.5177 31.1435 95.9098 30.4897 96.6811 29.9754C96.7408 29.9357 96.6104 30.1006 96.5831 30.1669C96.4773 30.4229 96.4428 30.6906 96.3963 30.9608C96.3619 31.1603 96.3542 31.3512 96.3309 31.5492C96.3162 31.6737 95.959 31.9069 95.8779 32.0442C95.7344 32.287 95.6654 32.5188 95.5697 32.782C95.5052 32.9594 95.3432 33.4957 95.439 33.333C95.6954 32.897 95.8176 32.2938 95.9293 31.806C96.0422 31.3128 95.9945 30.693 96.2095 30.2323C96.3891 29.8473 96.2433 29.4563 96.3682 29.0742C96.5689 28.4605 96.7925 27.8167 96.9193 27.1829C97.0908 26.3255 97.34 25.4955 97.573 24.6565C97.6818 24.265 97.5503 23.7112 97.8252 23.4144C97.9917 23.2346 98.0854 23.0045 98.1755 22.7793C98.3878 22.2485 98.1828 23.9142 98.1755 23.9841C98.0725 24.9623 97.9263 25.9777 98.0307 26.9634C98.0376 27.0288 98.246 27.5551 98.2081 27.3183C98.1149 26.7356 98.0961 26.218 98.0961 25.6185C98.0961 24.6159 98.0239 23.5412 98.3903 22.5832C98.5925 22.0542 98.8444 21.5948 98.9927 21.0421C99.2946 19.9167 99.4187 18.8941 99.441 17.7359C99.4548 17.0167 99.9299 16.1022 99.7352 15.401C99.5502 14.7353 99.7717 13.8603 100.029 13.2436C100.191 12.8565 100.274 12.399 100.45 12.0481" stroke="#F9E6D8" stroke-width="5" stroke-linecap="round"/>
<path d="M82.2068 43.6943C82.8188 43.4708 83.2964 43.0875 83.8177 42.7029C84.1264 42.4752 84.3226 42.1722 84.6445 41.9509C84.9883 41.7145 85.3388 41.4675 85.6422 41.1796C85.8052 41.025 85.9343 40.843 86.0781 40.6711C86.3791 40.3113 86.7131 39.9879 87.048 39.6606C87.2015 39.5107 87.3087 39.3657 87.4454 39.1948C87.6072 38.9926 87.7989 38.8195 87.971 38.6265C88.487 38.0479 88.9762 37.439 89.458 36.8319C89.9889 36.1629 90.2529 35.3974 90.6587 34.6527C90.9352 34.1452 91.2728 33.6793 91.5667 33.1828C91.9464 32.5413 92.2246 31.8528 92.4875 31.1574C92.7459 30.474 93.0278 29.8303 93.3549 29.179C93.7668 28.3592 93.8591 27.5075 93.8591 26.6024C93.8591 26.0753 93.8548 25.5745 93.9959 25.062C94.1326 24.5653 94.3299 24.0842 94.5599 23.6242C94.9331 22.8777 95.3222 22.1343 95.6538 21.3681C95.9634 20.6526 96.3221 19.8198 96.1281 19.0436" stroke="#F9E6D8" stroke-width="5" stroke-linecap="round"/>
<path d="M96.0854 15.1836C96.0659 19.664 96.1339 24.1635 95.8504 28.6385C95.7999 29.4348 95.6169 30.2386 95.5861 31.0357C95.5817 31.149 95.6849 31.4435 95.6228 31.5057" stroke="#F9E6D8" stroke-width="5" stroke-linecap="round"/>
<path d="M179.872 49.5L187.872 30.2V43.85C187.872 45.925 187.822 47 187.647 49H191.522C191.347 47 191.272 45.925 191.272 43.85V34.15C191.272 32.075 191.347 31 191.522 29H187.872L181.147 44.925L173.997 29H170.047C170.222 31 170.272 32.075 170.272 34.15V43.85C170.272 45.925 170.222 47 170.047 49H170.997C170.797 47 170.747 45.925 170.747 43.85V30.275L179.247 49.5H179.872ZM206.364 49.5C212.914 49.5 217.889 45.35 217.889 39C217.889 32.675 212.914 28.5 206.364 28.5C199.764 28.5 194.814 32.675 194.814 39C194.814 45.35 199.764 49.5 206.364 49.5ZM206.364 49.025C201.289 49.025 198.514 44.275 198.514 39C198.514 33.75 201.289 28.975 206.364 28.975C211.389 28.975 214.189 33.75 214.189 39C214.189 44.275 211.389 49.025 206.364 49.025ZM222.968 47.85L221.293 46.175L219.643 47.85L221.293 49.5L222.968 47.85ZM233.329 49C239.904 49 243.904 45.45 243.904 39C243.904 32.275 239.779 29 233.329 29H227.229C227.404 31 227.454 32.075 227.454 34.15V43.85C227.454 45.925 227.404 47 227.229 49H233.329ZM230.879 29.475H233.229C237.354 29.475 240.204 32.5 240.204 39C240.204 45.25 237.354 48.525 233.229 48.525H230.879V29.475ZM254.579 29H250.504C250.704 29.65 250.679 29.975 250.529 30.6L246.129 46.375C245.854 47.3 245.754 47.825 245.179 49H246.029C246.129 47.875 246.329 47.3 246.604 46.35L247.879 41.8H254.504L255.729 46.15C256.054 47.3 256.204 47.8 256.279 49H260.479C259.954 48.025 259.704 47.4 259.354 46.15L254.579 29ZM251.179 29.875L254.379 41.325H248.004L251.179 29.875ZM137.194 88.5C140.369 88.5 143.069 86.85 143.069 83.4C143.069 80.15 140.744 78.575 136.244 75.425C132.894 73.1 131.619 72.25 131.619 70.525C131.619 69.025 132.844 67.975 134.894 67.975C138.119 67.975 139.419 70.625 140.019 73.25L142.544 72.225C140.519 68.975 138.169 67.5 135.069 67.5C132.044 67.5 129.694 68.95 129.694 71.725C129.694 74.35 131.269 75.6 135.094 78.35C138.994 81.15 141.144 82.55 141.144 84.6C141.144 86.85 139.619 88.025 137.419 88.025C134.119 88.025 131.669 84.975 130.994 80.775L128.469 82.125C130.444 86.85 133.394 88.5 137.194 88.5ZM154.796 88.5C159.371 88.5 161.546 86.05 161.546 79.5V73.15C161.546 71.075 161.596 70 161.771 68H160.846C161.021 70 161.071 71.075 161.071 73.15V79.5C161.071 85.625 159.146 87.75 155.371 87.75C151.421 87.75 149.971 85.375 149.971 79.5V73.15C149.971 71.075 150.021 70 150.196 68H146.321C146.496 70 146.546 71.075 146.546 73.15V79.5C146.546 86.65 149.871 88.5 154.796 88.5ZM173.167 88.5C176.342 88.5 179.042 86.85 179.042 83.4C179.042 80.15 176.717 78.575 172.217 75.425C168.867 73.1 167.592 72.25 167.592 70.525C167.592 69.025 168.817 67.975 170.867 67.975C174.092 67.975 175.392 70.625 175.992 73.25L178.517 72.225C176.492 68.975 174.142 67.5 171.042 67.5C168.017 67.5 165.667 68.95 165.667 71.725C165.667 74.35 167.242 75.6 171.067 78.35C174.967 81.15 177.117 82.55 177.117 84.6C177.117 86.85 175.592 88.025 173.392 88.025C170.092 88.025 167.642 84.975 166.967 80.775L164.442 82.125C166.417 86.85 169.367 88.5 173.167 88.5ZM189.741 88C189.566 86 189.516 84.925 189.516 82.85V68.475H189.816C191.091 68.475 192.891 68.65 194.991 69.725L196.291 68H179.316L180.616 69.725C182.716 68.65 184.516 68.475 185.791 68.475H186.091V82.85C186.091 84.925 186.041 86 185.866 88H189.741ZM210.98 88L211.805 86.325C208.73 87.375 207.13 87.525 204.58 87.525H202.105V77.675H203.58C204.905 77.675 206.255 77.675 208.58 77.925V76.95C206.255 77.2 204.905 77.2 203.58 77.2H202.105V68.475H204.305C205.58 68.475 207.83 68.65 209.905 69.725L211.205 68H198.43C198.63 70 198.705 71.075 198.705 73.15V82.85C198.705 84.925 198.63 86 198.43 88H210.98ZM215.607 88C215.432 86 215.382 84.925 215.382 82.85V69.025L215.432 69.05L226.457 88H230.507C230.307 86 230.257 84.925 230.257 82.85V73.15C230.257 71.075 230.307 70 230.507 68H229.607C229.782 70 229.857 71.075 229.857 73.15V86.975L229.807 86.95L218.757 68H214.732C214.907 70 214.957 71.075 214.957 73.15V82.85C214.957 84.925 214.907 86 214.732 88H215.607ZM243.48 88C243.305 86 243.255 84.925 243.255 82.85V68.475H243.555C244.83 68.475 246.63 68.65 248.73 69.725L250.03 68H233.055L234.355 69.725C236.455 68.65 238.255 68.475 239.53 68.475H239.83V82.85C239.83 84.925 239.78 86 239.605 88H243.48ZM258.494 63.925C258.994 63.4 259.019 62.125 257.694 62.05L253.494 66.1L253.669 66.3C256.169 64.775 257.519 64.95 258.494 63.925ZM257.944 68H253.869C254.069 68.65 254.044 68.975 253.894 69.6L249.494 85.375C249.219 86.3 249.119 86.825 248.544 88H249.394C249.494 86.875 249.694 86.3 249.969 85.35L251.244 80.8H257.869L259.094 85.15C259.419 86.3 259.569 86.8 259.644 88H263.844C263.319 87.025 263.069 86.4 262.719 85.15L257.944 68ZM254.544 68.875L257.744 80.325H251.369L254.544 68.875ZM272.526 88C272.326 87.35 272.351 87.025 272.501 86.4L276.901 70.625C277.151 69.7 277.276 69.175 277.851 68H276.976C276.901 69.125 276.676 69.7 276.426 70.65L271.851 87.125L267.276 70.85C266.976 69.7 266.801 69.2 266.751 68H262.551C263.076 68.975 263.326 69.6 263.651 70.85L268.451 88H272.526ZM292.928 88L293.753 86.325C290.678 87.375 289.078 87.525 286.528 87.525H284.053V77.675H285.528C286.853 77.675 288.203 77.675 290.528 77.925V76.95C288.203 77.2 286.853 77.2 285.528 77.2H284.053V68.475H286.253C287.528 68.475 289.778 68.65 291.853 69.725L293.153 68H280.378C280.578 70 280.653 71.075 280.653 73.15V82.85C280.653 84.925 280.578 86 280.378 88H292.928ZM308.705 88L309.53 86.325C306.43 87.375 304.855 87.525 302.28 87.525H300.38V73.15C300.38 71.075 300.43 70 300.605 68H296.73C296.905 70 296.955 71.075 296.955 73.15V82.85C296.955 84.925 296.88 86 296.68 88H308.705Z" fill="black"/>
</svg>
